<?xml version="1.0" encoding="UTF-8" standalone="no"?>
<svg width="526px" height="694px" viewBox="0 0 526 694" version="1.1" xmlns="http://www.w3.org/2000/svg" xmlns:xlink="http://www.w3.org/1999/xlink" xmlns:sketch="http://www.bohemiancoding.com/sketch/ns">
    <!-- Generator: Sketch 3.4.4 (17249) - http://www.bohemiancoding.com/sketch -->
    <title>Line Copy + Oval 1</title>
    <desc>Created with Sketch.</desc>
    <defs>
        <path id="path-1" d="M0,0 L122.878273,0 L255.5,178.935379 L389.018861,0 L488,0 L488,440 L387.07324,440 L255.5,262.59671 L127.521729,440 L0,440 L0,0 Z"></path>
    </defs>
    <g id="Page-1" stroke="none" stroke-width="1" fill="none" fill-rule="evenodd" sketch:type="MSPage">
        <g id="Logo" sketch:type="MSArtboardGroup" transform="translate(-2.000000, -8.000000)">
            <g id="Line-Copy-+-Oval-1" sketch:type="MSLayerGroup" transform="translate(10.000000, 43.000000)">
                <path d="M27,0 L483,624" id="Line-Copy" stroke="#229C79" stroke-width="50" stroke-linecap="square" sketch:type="MSShapeGroup"></path>
                <g id="Oval-1" transform="translate(0.000000, 93.000000)">
                    <mask id="mask-2" sketch:name="Mask" fill="white">
                        <use xlink:href="#path-1"></use>
                    </mask>
                    <use id="Mask" sketch:type="MSShapeGroup" xlink:href="#path-1"></use>
                    <path d="M255,466 C362.143241,466 449,355.414333 449,219 C449,82.5856668 362.143241,-28 255,-28 C147.856759,-28 61,82.5856668 61,219 C61,355.414333 147.856759,466 255,466 Z" stroke="#229C79" stroke-width="50" sketch:type="MSShapeGroup" mask="url(#mask-2)"></path>
                </g>
            </g>
        </g>
    </g>
</svg>